# xmcd
#
# Track frame offsets:
# 150
# 13153
# 27045
# 38978
# 53285
# 63705
# 78190
# 91393
# 103443
# 115978
# 128345
# 140293
# 151770
# 162918
# 175710
# 186338
# 199183
# 214545
# 228855
# 245820
#
# Disc length: 3463 seconds
#
#
# Revision: 1
# Processed by: cddbd v1.5PL3 Copyright (c) Steve Scherf et al.
# Submitted via: FreeRIP 2.30 
#
DISCID=040d8514
DTITLE=Hooker, John Lee - Everybody's blues
DYEAR=1900
DGENRE=Blues
TTITLE0=Do my baby think of me
TTITLE1=Three long years today
TTITLE2=Strike blues
TTITLE3=Grinder blues
TTITLE4=Walkin' this highway
TTITLE5=Four women in my life
TTITLE6=Ii need lovin'
TTITLE7=Find me a woman
TTITLE8=I'm mad
TTITLE9=I been done so wrong
TTITLE10=Boogie rambler
TTITLE11=I keep the blues
TTITLE12=No more doggin' AKA no more foolin'
TTITLE13=Everbody's blues
TTITLE14=Anybody's blues (i love you baby)
TTITLE15=Locked up in jail AKA prison blues
TTITLE16=Nothing' but trouble (don't take your wife's family in)
TTITLE17=I need love so bad
TTITLE18=Don't trust noboby
TTITLE19=Odds against me AKA backbiter and syndicators
EXTD=ID3G: 0
EXTT0=
EXTT1=
EXTT2=
EXTT3=
EXTT4=
EXTT5=
EXTT6=
EXTT7=
EXTT8=
EXTT9=
EXTT10=
EXTT11=
EXTT12=
EXTT13=
EXTT14=
EXTT15=
EXTT16=
EXTT17=
EXTT18=
EXTT19=
PLAYORDER=
